  <svg class="Media projects__logo__media"  xmlns="http://www.w3.org/2000/svg" viewBox="0 0 40.6 80.2">
        <g id="close" stroke="blue">
          <path fill="none" d="M11.3,31.1l6.3,6.3" />
          <path fill="none" d="M20.4,40l8.9,9.1" />
          <path fill="none" d="M29.3,31.1l-18,18" />
        </g>

        <g id="logo" stroke="red">
          <path fill="none" d="M40.1,68.4v11.3H0.5" />
          <path fill="none" d="M0.5,62.7h39.6" />
          <path fill="none" d="M0.5,51.4h39.6" />
          <path fill="none" d="M0.5,45.8v-2.8c0-4.7,3.8-8.5,8.5-8.5h0c4.7,0,8.5,3.8,8.5,8.5 v25.5V42.9c0-4.7,3.8-8.5,8.5-8.5h5.7c4.7,0,8.5,3.8,8.5,8.5v2.8" />
          <path fill="none" d="M28.8,17.5h11.3v11.3h-9c-5.1,0-10-2-13.7-5.7l0,0 c-3.6-3.6-8.5-5.7-13.7-5.7H0.5v11.3" />
          <path fill="none" d="M0.5,11.8V9c0-4.7,3.8-8.5,8.5-8.5h0c4.7,0,8.5,3.8,8.5,8.5v22.5 V9c0-4.7,3.8-8.5,8.5-8.5h14.1" />
        </g>
      </svg>
