<?xml version="1.0" encoding="utf-8"?>
<!-- Generator: Adobe Illustrator 25.4.1, SVG Export Plug-In . SVG Version: 6.00 Build 0)  -->
<svg version="1.1" id="Layer_1" xmlns="http://www.w3.org/2000/svg" xmlns:xlink="http://www.w3.org/1999/xlink" x="0px" y="0px"
	 viewBox="0 0 40.5 92.7" style="enable-background:new 0 0 40.5 92.7;" xml:space="preserve">
<style type="text/css">
	.st0{fill:none;stroke:#FFFFFF;}
</style>
<path class="st0" d="M0.7,11.3V8.5C0.7,3.8,4.5,0,9.2,0s8.5,3.8,8.5,8.5V31V8.5c0-4.7,3.8-8.5,8.5-8.5h14.2"/>
<path class="st0" d="M0,38.9c0,0,8.8,0.1,11.7,0.1c4,0,8.5,3.8,8.5,8.5V57v-9.5c0-4.7,3.8-8.5,8.5-8.5h11.8"/>
<path class="st0" d="M28.7,92.7h11.3V81.4h-9c-5.1,0-10,2-13.7,5.7c-3.6,3.6-8.5,5.7-13.7,5.7H0.5V81.4"/>
<path class="st0" d="M0.5,66.2V54.9h11.4"/>
<path class="st0" d="M0.7,22.8h39.8"/>
<path class="st0" d="M0.1,81.8l40.2-15.2"/>
<path class="st0" d="M0,66.7l40.5-0.1"/>
<path class="st0" d="M40,66.1V54.8H28.7"/>
<path class="st0" d="M0.7,11.2v23.4"/>
</svg>
