<?xml version="1.0" encoding="utf-8"?>
<svg viewBox="-227.925 262.244 40.532 92.687" xmlns="http://www.w3.org/2000/svg" >
  <path d="M -65.553 136.389 L -65.553 133.56 C -65.553 128.873 -61.753 125.073 -57.066 125.073 C -52.379 125.073 -48.579 128.873 -48.579 133.56 L -48.579 156.039 L -48.579 133.56 C -48.579 128.872 -44.779 125.073 -40.092 125.073 L -25.879 125.073" fill="none" transform="matrix(1, 0, 0, 1, -161.649277, 137.170761)"/>
  <path d="M -66.228 163.967 C -66.228 163.967 -57.396 164.112 -54.561 164.112 C -50.56 164.112 -46.074 167.912 -46.074 172.599 L -46.074 182.121 L -46.074 172.599 C -46.074 167.911 -42.274 164.112 -37.587 164.112 L -25.834 164.112" fill="none" transform="matrix(1, 0, 0, 1, -161.649277, 137.170761)"/>
  <path d="M -37.527 217.76 L -26.212 217.76 L -26.212 206.445 L -35.184 206.445 C -40.308 206.445 -45.221 208.48 -48.844 212.103 C -52.467 215.726 -57.38 217.76 -62.504 217.76 L -65.818 217.76 L -65.818 206.445" fill="none" transform="matrix(1, 0, 0, 1, -161.649277, 137.170761)"/>
  <path d="M -54.404 179.947 L -54.404 191.263 L -65.775 191.263" fill="none" transform="matrix(-1, 0, 0, -1, -281.828262, 508.380753)"/>
  <path d="M -65.573 147.869 L -25.819 147.869" fill="none" transform="matrix(1, 0, 0, 1, -161.649277, 137.170761)"/>
  <path d="M -66.135 206.923 L -25.919 191.735" fill="none" transform="matrix(1, 0, 0, 1, -161.649277, 137.170761)"/>
  <path d="M -66.276 191.758 L -25.744 191.7" fill="none" transform="matrix(1, 0, 0, 1, -161.649277, 137.170761)"/>
  <path d="M -26.243 191.213 L -26.243 179.897 L -37.614 179.897" fill="none" transform="matrix(1, 0, 0, 1, -161.649277, 137.170761)"/>
  <path d="M -65.56 136.319 L -65.56 159.671" fill="none" transform="matrix(1, 0, 0, 1, -161.649277, 137.170761)"/>
</svg>
